<svg id="logo_white" xmlns="http://www.w3.org/2000/svg" viewBox="0 0 302.37 53.54"><defs><style>.cls-1{fill:#ffffff;}.cls-2{fill:#f39800;}.cls-3{fill:#fff;}</style></defs><title>logo_white</title><path class="cls-1" d="M302.76,525.26v-.73h0l0,0a.86.86,0,0,0-.07-.1h0c-.22-.33-.46-.66-.7-1a46.16,46.16,0,0,0-33.27-19.1,37.36,37.36,0,0,0-7.74-.07l-.29,0a1,1,0,0,1-1-1.45c2.77-5.28,10.65-20.43,12.82-24.43a.56.56,0,0,0-.54-.82,4.48,4.48,0,0,0-2.53,1.07c-.05.08-.1.17-.16.25-.84,1.34-12.34,20.61-15.8,26.53-1.77,3-3.1,5.33-3.54,6.13l.26-.1.1,0a46.18,46.18,0,0,1,52,13.33" transform="translate(-249.92 -471.72)"/><path class="cls-1" d="M280.09,472.77l-.92,2.05a.55.55,0,0,0,.53.78,27,27,0,0,1,3.7,0,1.4,1.4,0,0,0,1.41-.88l.25-.69a1.37,1.37,0,0,0-1.3-1.85,25.45,25.45,0,0,0-3.25.25A.52.52,0,0,0,280.09,472.77Z" transform="translate(-249.92 -471.72)"/><path class="cls-1" d="M277.06,479.49,276,482a.55.55,0,0,0,.51.78,33.81,33.81,0,0,1,4.19.19,1.34,1.34,0,0,0,1.41-.89c.12-.31.25-.67.38-1a1.37,1.37,0,0,0-1.21-1.84,33.24,33.24,0,0,0-3.7,0A.54.54,0,0,0,277.06,479.49Z" transform="translate(-249.92 -471.72)"/><path class="cls-1" d="M273.37,487.64,268.18,499a.54.54,0,0,0,.49.77,41.83,41.83,0,0,1,5.35.53,1.36,1.36,0,0,0,1.5-.86c.77-2,2.47-6.58,3.53-9.38a2,2,0,0,0-1.7-2.63c-1.46-.11-2.76-.12-3.5-.11A.55.55,0,0,0,273.37,487.64Z" transform="translate(-249.92 -471.72)"/><path class="cls-1" d="M288.93,474c-.1.35-.2.71-.3,1.05a1.37,1.37,0,0,0,.92,1.68,27.87,27.87,0,0,1,4.05,1.57,1.44,1.44,0,0,1,.82,1.4l-.06.93a1.48,1.48,0,0,1-2.12,1.24,25.11,25.11,0,0,0-3.72-1.41,1.37,1.37,0,0,0-1.72.92l-.37,1.28a1.35,1.35,0,0,0,.88,1.66,36.25,36.25,0,0,1,5.53,2.31,1.91,1.91,0,0,1,1,1.81c0,.44-.07,1-.1,1.49a1.68,1.68,0,0,1-2.45,1.38,32.7,32.7,0,0,0-5.27-2.17,1.36,1.36,0,0,0-1.73.92c-.18.65-.4,1.43-.59,2.09a1.34,1.34,0,0,0,.91,1.65,34.58,34.58,0,0,1,7.51,3.21,2,2,0,0,1,1,1.87l-.09,1.6a1.77,1.77,0,0,1-2.62,1.43,38.61,38.61,0,0,0-7.26-3,1.35,1.35,0,0,0-1.7.9c-.08.26-.16.55-.27.93a1.36,1.36,0,0,0,.85,1.66,43.67,43.67,0,0,1,15.12,9.44.53.53,0,0,0,.91-.36c.15-5.8.77-30.11.84-34.07a.5.5,0,0,0-.22-.43,24.69,24.69,0,0,0-8.1-3.9A1.39,1.39,0,0,0,288.93,474Z" transform="translate(-249.92 -471.72)"/><path class="cls-1" d="M303,481.2a30.59,30.59,0,0,1,4.32-4.12,1.37,1.37,0,0,1,2.19.94c.05.4.09.77.12,1.12a1.32,1.32,0,0,1-.57,1.24,30,30,0,0,0-5.22,4.56.56.56,0,0,1-1-.37v-3A.59.59,0,0,1,303,481.2Z" transform="translate(-249.92 -471.72)"/><path class="cls-1" d="M303,490.25a28.19,28.19,0,0,1,5.26-4.95,1.36,1.36,0,0,1,2.17.95c0,.42.09.84.13,1.22a1.35,1.35,0,0,1-.55,1.26,32.5,32.5,0,0,0-6.17,5.45.56.56,0,0,1-1-.37v-3.2A.59.59,0,0,1,303,490.25Z" transform="translate(-249.92 -471.72)"/><path class="cls-1" d="M302.94,500.77a43.12,43.12,0,0,1,6.35-6,1.37,1.37,0,0,1,2.18.95c.08.69.15,1.34.21,1.9a1.35,1.35,0,0,1-.6,1.26,37.89,37.89,0,0,0-7.29,6.61.55.55,0,0,1-1-.36v-4A.58.58,0,0,1,302.94,500.77Z" transform="translate(-249.92 -471.72)"/><path class="cls-1" d="M302.93,512.93a36.67,36.67,0,0,1,7.55-7.62,1.37,1.37,0,0,1,2.19.93c.06.45.11.91.17,1.47a1.36,1.36,0,0,1-.51,1.24,43.2,43.2,0,0,0-8.51,8.79.56.56,0,0,1-1-.33v-4.14A.6.6,0,0,1,302.93,512.93Z" transform="translate(-249.92 -471.72)"/><path class="cls-1" d="M313.17,473.83a27.32,27.32,0,0,1,11.88-1.47.58.58,0,0,1,.44.33c.21.45.62,1.36,1,2.1a.56.56,0,0,1-.53.79,26.77,26.77,0,0,0-7.68.69,1.37,1.37,0,0,0-1,1.67,41.32,41.32,0,0,0,13.59,21.73.55.55,0,0,1-.25,1,39.77,39.77,0,0,0-11.64,4,.55.55,0,0,1-.79-.38c-1.33-6.64-4.93-24.28-5.87-28.86A1.36,1.36,0,0,1,313.17,473.83Z" transform="translate(-249.92 -471.72)"/><path class="cls-2" d="M302.76,525.26v-.73h0l0,0,.07-.1h0l.7-1a46.16,46.16,0,0,1,33.27-19.1,37.36,37.36,0,0,1,7.74-.07l.29,0a1,1,0,0,0,1-1.45c-2.77-5.28-10.64-20.43-12.82-24.43a.56.56,0,0,1,.54-.82,4.48,4.48,0,0,1,2.53,1.07c.05.08.1.17.16.25.84,1.34,12.34,20.61,15.8,26.53,1.78,3,3.1,5.33,3.54,6.13l-.25-.1-.11,0a46.18,46.18,0,0,0-52,13.33" transform="translate(-249.92 -471.72)"/><path class="cls-2" d="M324.07,479.22a33.49,33.49,0,0,1,4-.08.53.53,0,0,1,.46.31c1.15,2.47,6.37,13.68,8.78,18.84a.56.56,0,0,1-.75.74c-7.31-3.55-12.15-13.18-13.73-18A1.36,1.36,0,0,1,324.07,479.22Z" transform="translate(-249.92 -471.72)"/><!--<path class="cls-3" d="M366.54,522.64a5.55,5.55,0,0,0,1.1.6l-.26.59A5.13,5.13,0,0,1,366,523a3.17,3.17,0,0,1-1.58.4,3.07,3.07,0,0,1-1.59-.42,2.88,2.88,0,0,1-1.1-1.19,4.08,4.08,0,0,1,0-3.46,2.65,2.65,0,0,1,1.1-1.19,3.17,3.17,0,0,1,1.6-.41,3,3,0,0,1,1.6.43,2.73,2.73,0,0,1,1.1,1.18,3.84,3.84,0,0,1,.37,1.72,4,4,0,0,1-.24,1.43A2.87,2.87,0,0,1,366.54,522.64Zm-1.88-1.09a3.18,3.18,0,0,1,1.22.61,2.64,2.64,0,0,0,.75-2.06,3.21,3.21,0,0,0-.26-1.36,2.05,2.05,0,0,0-.78-.91,2.24,2.24,0,0,0-2.73.33,2.69,2.69,0,0,0-.63,2,2.76,2.76,0,0,0,.62,1.93,2.06,2.06,0,0,0,1.59.67,2.27,2.27,0,0,0,.86-.17,2.84,2.84,0,0,0-.84-.37Z" transform="translate(-249.92 -471.72)"/><path class="cls-3" d="M382.38,516.89h.85v3.72a4.3,4.3,0,0,1-.22,1.54,1.92,1.92,0,0,1-.79.93,2.84,2.84,0,0,1-1.51.36,3.07,3.07,0,0,1-1.48-.31,1.78,1.78,0,0,1-.82-.91,4.15,4.15,0,0,1-.25-1.61v-3.72H379v3.71a3.7,3.7,0,0,0,.16,1.24,1.11,1.11,0,0,0,.54.61,2.21,2.21,0,0,0,2.27-.21,2.49,2.49,0,0,0,.4-1.64Z" transform="translate(-249.92 -471.72)"/><path class="cls-3" d="M393.48,523.33,396,520l-2.2-3.08h1l1.17,1.65a6.78,6.78,0,0,1,.52.79c.15-.24.32-.48.51-.73l1.3-1.71h.93l-2.27,3,2.44,3.41h-1.05l-1.62-2.3c-.1-.13-.19-.27-.29-.43-.14.23-.24.4-.3.48l-1.62,2.25Z" transform="translate(-249.92 -471.72)"/><path class="cls-3" d="M413.86,516.89h.85v3.72a4.3,4.3,0,0,1-.22,1.54,1.86,1.86,0,0,1-.79.93,2.79,2.79,0,0,1-1.51.36,3.09,3.09,0,0,1-1.48-.31,1.82,1.82,0,0,1-.82-.91,4.37,4.37,0,0,1-.24-1.61v-3.72h.85v3.71a3.76,3.76,0,0,0,.15,1.24,1.19,1.19,0,0,0,.54.61,1.78,1.78,0,0,0,.93.22,1.74,1.74,0,0,0,1.34-.43,2.43,2.43,0,0,0,.4-1.64Z" transform="translate(-249.92 -471.72)"/><path class="cls-3" d="M425.64,523.33v-6.44h4.66v.76h-3.81v2h3.57v.76h-3.57v2.19h4v.76Z" transform="translate(-249.92 -471.72)"/><path class="cls-3" d="M452.67,521.5l.77-.1a1.62,1.62,0,0,0,.28,1,.87.87,0,0,0,.68.27,1,1,0,0,0,.55-.15.7.7,0,0,0,.32-.4,2.61,2.61,0,0,0,.09-.8v-4.44h.85v4.39a3.22,3.22,0,0,1-.19,1.25,1.41,1.41,0,0,1-.62.68,2.11,2.11,0,0,1-1,.23,1.69,1.69,0,0,1-1.3-.49A2,2,0,0,1,452.67,521.5Z" transform="translate(-249.92 -471.72)"/><path class="cls-3" d="M466.84,520.19a3.46,3.46,0,0,1,.86-2.51,2.91,2.91,0,0,1,2.22-.91,3,3,0,0,1,1.61.43,2.81,2.81,0,0,1,1.1,1.19,4.17,4.17,0,0,1,0,3.48,2.67,2.67,0,0,1-1.13,1.17,3.12,3.12,0,0,1-1.56.4,3.08,3.08,0,0,1-1.63-.44,2.73,2.73,0,0,1-1.08-1.2A3.59,3.59,0,0,1,466.84,520.19Zm.88,0a2.63,2.63,0,0,0,.62,1.84,2.19,2.19,0,0,0,3.16,0,2.75,2.75,0,0,0,.62-1.92,3.42,3.42,0,0,0-.26-1.37,2.05,2.05,0,0,0-.78-.91,2.08,2.08,0,0,0-1.15-.32,2.14,2.14,0,0,0-1.56.62A2.73,2.73,0,0,0,467.72,520.2Z" transform="translate(-249.92 -471.72)"/><path class="cls-3" d="M487.82,516.89h.85v3.72a4.3,4.3,0,0,1-.22,1.54,1.92,1.92,0,0,1-.79.93,2.84,2.84,0,0,1-1.51.36,3.07,3.07,0,0,1-1.48-.31,1.78,1.78,0,0,1-.82-.91,4.15,4.15,0,0,1-.25-1.61v-3.72h.86v3.71a3.76,3.76,0,0,0,.15,1.24,1.11,1.11,0,0,0,.54.61,2.21,2.21,0,0,0,2.27-.21,2.49,2.49,0,0,0,.4-1.64Z" transform="translate(-249.92 -471.72)"/><path class="cls-3" d="M499.59,523.33v-6.44h2.86a3.74,3.74,0,0,1,1.31.17,1.42,1.42,0,0,1,.72.61,1.83,1.83,0,0,1,.26,1,1.6,1.6,0,0,1-.44,1.16,2.3,2.3,0,0,1-1.37.6,2.05,2.05,0,0,1,.51.32,4.17,4.17,0,0,1,.71.86l1.12,1.75H504.2l-.85-1.34c-.25-.39-.46-.68-.62-.89a1.92,1.92,0,0,0-.43-.43,1.32,1.32,0,0,0-.39-.17,2.72,2.72,0,0,0-.48,0h-1v2.86Zm.86-3.6h1.83a2.74,2.74,0,0,0,.91-.12.94.94,0,0,0,.5-.39,1,1,0,0,0,.18-.58,1,1,0,0,0-.34-.75,1.57,1.57,0,0,0-1-.29h-2Z" transform="translate(-249.92 -471.72)"/><path class="cls-3" d="M515.56,523.33v-6.44h.88l3.38,5.05v-5.05h.82v6.44h-.88l-3.38-5.06v5.06Z" transform="translate(-249.92 -471.72)"/><path class="cls-3" d="M531.58,523.33v-6.44h4.66v.76h-3.81v2H536v.76h-3.57v2.19h4v.76Z" transform="translate(-249.92 -471.72)"/><path class="cls-3" d="M548.87,523.33V520.6l-2.48-3.71h1l1.27,1.94c.24.36.46.73.66,1.09.19-.34.43-.72.7-1.14l1.25-1.89h1l-2.57,3.71v2.73Z" transform="translate(-249.92 -471.72)"/>--><polygon class="cls-3" points="301.19 19.23 301.19 16.43 278.3 16.5 278.3 19.29 287.23 19.27 287.23 25.42 278.3 25.45 278.3 28.24 287.23 28.22 287.23 34.32 278.3 34.34 278.3 37.14 301.19 37.08 301.19 34.28 292.26 34.3 292.26 28.2 301.19 28.18 301.19 25.38 292.26 25.41 292.26 19.25 301.19 19.23"/><path class="cls-3" d="M548,471.73l-16.59,0a2.82,2.82,0,0,0-2.86,2.75v8.23a2.8,2.8,0,0,0,2.87,2.74l16.6-.05a2.79,2.79,0,0,0,2.85-2.74v-8.23A2.81,2.81,0,0,0,548,471.73Zm-13.19,2.84,9.79,0a1.21,1.21,0,0,1,1.24,1.19v5.75a1.21,1.21,0,0,1-1.23,1.19l-9.79,0a1.22,1.22,0,0,1-1.24-1.19v-5.76A1.21,1.21,0,0,1,534.78,474.57Z" transform="translate(-249.92 -471.72)"/><polygon class="cls-3" points="258.82 37.13 263.85 37.13 264.73 14.45 259.7 14.45 258.82 37.13"/><path class="cls-3" d="M523.43,475.36h.91a2.24,2.24,0,0,0,2.28-2.19v-1.43h-5a.86.86,0,0,1-.87.84l-12.56,0v2.8l10.24,0v6l-10.26,0v2.79l10.26,0v24.71h5V493.77h3.29V491h-3.29v-6.84h3.29v-2.8h-3.29Z" transform="translate(-249.92 -471.72)"/><polygon class="cls-3" points="252.29 1.26 236.06 1.31 236.06 0 231.03 0 231.03 4.13 252.29 4.06 252.29 1.26"/><path class="cls-3" d="M471.69,471.73h-5v1.33h-7.55v2.8h3.25l-.69,29.08a1.21,1.21,0,0,1-1.24,1.16h-1.21v2.8h4a3.43,3.43,0,0,0,3.5-3.29l.47-21.39h5a1.21,1.21,0,0,1,1.24,1.19v19.5a1.22,1.22,0,0,1-1.24,1.19H469.6v2.81h5.33a3.43,3.43,0,0,0,3.49-3.35l0-21.22a3,3,0,0,0-3-2.9h-8.16l.13-5.56h11.05v-2.8h-6.75Z" transform="translate(-249.92 -471.72)"/><path class="cls-3" d="M488,482.67l11.4,0a2.81,2.81,0,0,0,2.84-2.75V478.6h-5a1.27,1.27,0,0,1-1.29,1.25l-11.36,0a3.51,3.51,0,0,0-3.58,3.43v22.17a3.48,3.48,0,0,0,3.55,3.4h6.77V506.1h-4a1.22,1.22,0,0,1-1.24-1.18V484.58A2,2,0,0,1,488,482.67Z" transform="translate(-249.92 -471.72)"/><path class="cls-3" d="M496.5,491h5.71v-2.8h-6l-.38-3.37h-5l2.31,21a3.49,3.49,0,0,0,3.52,3h5.72v-2.8h-3.08a1.21,1.21,0,0,1-1.22-1.06Z" transform="translate(-249.92 -471.72)"/><path class="cls-3" d="M373.73,495.16h3v-2.79h-3v-5.54h3V484h-3v-8.17h3v-2.8h-3v-1.33h-5v1.33h-7.35v2.8h7.35V484h-7.35v2.8h7.35V506h-.92a1.21,1.21,0,0,1-1.23-1.19V489.49h-5v16.06a3.32,3.32,0,0,0,3.4,3.25h39.5V506H375.74a2,2,0,0,1-2-1.93Z" transform="translate(-249.92 -471.72)"/><path class="cls-3" d="M378.28,499.8l-.73.07v2.79l8.23-.74v1.43h5v-1.88l.7-.07v-2.79l-.7.06V474.53h.68v-2.8h-14v2.8h.75ZM385.07,489H384a.69.69,0,0,1-.71-.68v-4.48a.69.69,0,0,1,.71-.68h1.06a.7.7,0,0,1,.7.68v4.48A.69.69,0,0,1,385.07,489Zm-1.76,9.57v-6.1a.69.69,0,0,1,.71-.67h1.06a.69.69,0,0,1,.7.68v6a.68.68,0,0,1-.64.67l-1.06.1A.7.7,0,0,1,383.31,498.6Zm1.76-18.2H384a.69.69,0,0,1-.71-.67V475.2a.7.7,0,0,1,.71-.68h1.05a.7.7,0,0,1,.71.68v4.52A.7.7,0,0,1,385.07,480.4Z" transform="translate(-249.92 -471.72)"/><path class="cls-3" d="M400.66,491.16l3.67-16.47a1.24,1.24,0,0,0,0-.33h0a2.69,2.69,0,0,0-2.74-2.63h-9.1v2.8h5a1.38,1.38,0,0,1,1.38,1.68l-1.07,6.13-1.92-5.24h-4.11l4.07,11.67-3.5,14.62h5l1.31-5.62,1.55,5.61h4.25Z" transform="translate(-249.92 -471.72)"/><path class="cls-3" d="M448.28,471.82h-5l-1,5.37h-7.5l-1-5.44h-5l1,5.44h-8.41l-1-5.44h-5l1,5.43h-2.81a3,3,0,0,0-3,2.91v4.09h5v-3a1.22,1.22,0,0,1,1.24-1.19h30.34a1.21,1.21,0,0,1,1.24,1.18v3h5v-4.09a3,3,0,0,0-3-2.9h-3Z" transform="translate(-249.92 -471.72)"/><path class="cls-3" d="M453.19,494.59H441.64l5.52-5.78a2.66,2.66,0,0,0,.74-1.83h0a1.85,1.85,0,0,0-1.85-1.85H415.61V488h26.1a.27.27,0,0,1,.2.46l-5.82,6.09H410.32v2.91h25.79v7.84a.64.64,0,0,1-.64.63h-18.8v2.59l22.68.31a1.77,1.77,0,0,0,1.79-1.76v-9.59h12.05Z" transform="translate(-249.92 -471.72)"/></svg>